HIERARCHY
ROOT Hips
{
	OFFSET 0.00000 0.00000 0.00000
	CHANNELS 6 Xposition Yposition Zposition Zrotation Yrotation Xrotation 
	JOINT LHipJoint
	{
		OFFSET 0 0 0
		CHANNELS 3 Zrotation Yrotation Xrotation
		JOINT LeftHip
		{
			OFFSET 1.36337 -1.57426 1.11036
			CHANNELS 3 Zrotation Yrotation Xrotation
			JOINT LeftKnee
			{
				OFFSET 2.38468 -6.55187 0.00000
				CHANNELS 3 Zrotation Yrotation Xrotation
				JOINT LeftAnkle
				{
					OFFSET 2.37166 -6.51609 0.00000
					CHANNELS 3 Zrotation Yrotation Xrotation
					JOINT LeftToe
					{
						OFFSET 0.29078 -0.79891 2.01393
						CHANNELS 3 Zrotation Yrotation Xrotation
						End Site
						{
							OFFSET 0.00000 -0.00000 1.07924
						}
					}
				}
			}
		}
	}
	JOINT RHipJoint
	{
		OFFSET 0 0 0
		CHANNELS 3 Zrotation Yrotation Xrotation
		JOINT RightHip
		{
			OFFSET -1.36349 -1.57426 1.11036
			CHANNELS 3 Zrotation Yrotation Xrotation
			JOINT RightKnee
			{
				OFFSET -2.29562 -6.30717 0.00000
				CHANNELS 3 Zrotation Yrotation Xrotation
				JOINT RightAnkle
				{
					OFFSET -2.40985 -6.62100 0.00000
					CHANNELS 3 Zrotation Yrotation Xrotation
					JOINT RightToe
					{
						OFFSET -0.23197 -0.63733 1.92232
						CHANNELS 3 Zrotation Yrotation Xrotation
						End Site
						{
							OFFSET -0.00000 -0.00000 1.01562
						}
					}
				}
			}
		}
	}
	JOINT lowerback
	{
		OFFSET 0 0 0
		CHANNELS 3 Zrotation Yrotation Xrotation
		JOINT Chest
		{
			OFFSET -0.08565 2.03602 -0.24562
			CHANNELS 3 Zrotation Yrotation Xrotation
			JOINT Chest2
			{
				OFFSET -0.00036 2.05693 0.00216
				CHANNELS 3 Zrotation Yrotation Xrotation
				JOINT lowerneck
				{
					OFFSET 0 0 0
					CHANNELS 3 Zrotation Yrotation Xrotation
					JOINT Neck
					{
						OFFSET -0.03664 1.69515 0.31789
						CHANNELS 3 Zrotation Yrotation Xrotation
						JOINT Head
						{
							OFFSET 0.00932 1.70181 -0.46013
							CHANNELS 3 Zrotation Yrotation Xrotation
							End Site
							{
								OFFSET 0.01243 1.77620 -0.19377
							}
						}
					}
				}
				JOINT LeftCollar
				{
					OFFSET 0 0 0
					CHANNELS 3 Zrotation Yrotation Xrotation
					JOINT LeftShoulder
					{
						OFFSET 3.74344 0.81315 -0.36647
CHANNELS 3 Zrotation Xrotation Yrotation
						JOINT LeftElbow
						{
OFFSET 0 -4.971850 -0.000000
CHANNELS 3 Zrotation Xrotation Yrotation
							JOINT LeftWrist
							{
OFFSET 0 -3.358110 0.000000
CHANNELS 3 Zrotation Xrotation Yrotation
								JOINT lhand
								{
									OFFSET 0 0 0
CHANNELS 3 Zrotation Xrotation Yrotation
									JOINT LFingers
									{
OFFSET 0 -0.622780 0.000000
CHANNELS 3 Zrotation Xrotation Yrotation
										End Site
										{
OFFSET 0 -0.502100 0.000000
										}
									}
								}
								JOINT LThumb
								{
OFFSET 0 0.000000 0.000000
CHANNELS 3 Zrotation Xrotation Yrotation
									End Site
									{
OFFSET 0 -0.509760 0.509760
									}
								}
							}
						}
					}
				}
				JOINT RightCollar
				{
					OFFSET 0 0 0
					CHANNELS 3 Zrotation Yrotation Xrotation
					JOINT RightShoulder
					{
						OFFSET -3.75385 0.50666 -0.06525
CHANNELS 3 Zrotation Xrotation Yrotation
						JOINT RightElbow
						{
OFFSET 0 -4.964930 -0.000000
CHANNELS 3 Zrotation Xrotation Yrotation
							JOINT RightWrist
							{
OFFSET 0 -3.349290 0.000000
CHANNELS 3 Zrotation Xrotation Yrotation
								JOINT rhand
								{
									OFFSET 0 0 0
CHANNELS 3 Zrotation Xrotation Yrotation
									JOINT RFingers
									{
OFFSET 0 -0.638040 0.000000
CHANNELS 3 Zrotation Xrotation Yrotation
										End Site
										{
OFFSET 0 -0.514410 0.000000
										}
									}
								}
								JOINT RThumb
								{
OFFSET 0 0.000000 0.000000
CHANNELS 3 Zrotation Xrotation Yrotation
									End Site
									{
OFFSET 0 -0.522260 0.522260
									}
								}
							}
						}
					}
				}
			}
		}
	}
}
MOTION
Frames: 4
Frame Time: 0.008333333333333333
0.195334 16.039898 1.322185 -426.918917 92.734283 -418.346623 0.000000 0.000000 0.000000 -13.311576 -1.583915 -31.076786 6.788530 15.151184 48.070014 1.549139 -8.879377 -22.297282 0.017771 0.860497 2.364962 0.000000 0.000000 0.000000 9.305173 0.844656 -35.696334 -6.382856 -14.789356 46.499482 -1.176288 3.002585 -19.724352 -0.006626 0.526033 -1.445556 -1.529544 0.269951 30.496816 -0.137459 0.544468 7.021591 0.486622 0.564511 -8.826184 -2.497012 0.866814 -27.233465 -2.934103 3.254397 23.445097 -0.110169 0.828950 12.289676 0.000000 0.000000 0.000000 5.554799 -15.069802 -38.581497 23.693712 -34.838721 7.530927 23.249642 -22.669670 10.702854 0.000000 0.000000 0.000000 -7.125000 0.000000 0.000000 -2.692437 18.363147 -1.709024 0.000000 0.000000 0.000000 -10.519179 -13.327689 29.386540 -30.203562 -41.067209 -11.543094 -15.207238 -11.858452 26.879266 0.000000 0.000000 0.000000 7.125000 0.000000 0.000000 16.400820 56.929612 -4.888133
0.197848 16.040024 1.317972 -427.542574 92.728201 -418.946372 0.000000 0.000000 0.000000 -13.321037 -1.517793 -31.155018 6.814933 15.174041 48.170716 1.557286 -9.082714 -22.364511 0.036689 1.235242 3.396355 0.000000 0.000000 0.000000 9.272305 0.933928 -35.697875 -6.381784 -14.788354 46.495376 -1.174843 2.905259 -19.729934 -0.005983 0.497080 -1.365950 -1.574804 0.290910 30.455504 -0.115721 0.549910 6.940212 0.535390 0.564857 -8.899898 -2.763846 0.803145 -26.788078 -2.629116 3.127036 22.863777 0.023566 0.807893 11.965838 0.000000 0.000000 0.000000 5.301818 -14.865261 -38.423423 23.554050 -34.689083 7.451254 23.128065 -22.638374 10.847364 0.000000 0.000000 0.000000 -7.125000 0.000000 0.000000 -2.783984 18.218016 -1.776337 0.000000 0.000000 0.000000 -10.536496 -13.174487 29.467544 -30.217356 -41.078958 -11.552222 -15.415957 -12.057361 25.454312 0.000000 0.000000 0.000000 7.125000 0.000000 0.000000 15.380562 55.591126 -4.067469
0.195264 16.037607 1.311943 -432.531085 92.571927 -423.875978 0.000000 0.000000 0.000000 -13.296160 -1.335284 -31.290168 6.825982 15.183611 48.213022 1.565654 -9.027786 -22.422048 0.040996 1.306641 3.592838 0.000000 0.000000 0.000000 9.282832 1.199752 -35.784399 -6.379189 -14.785943 46.485064 -1.161143 2.874232 -19.616222 -0.014068 0.765998 -2.105137 -1.634768 0.403267 30.398503 -0.103330 0.670975 6.922804 0.540134 0.620294 -8.895426 -2.737481 0.820643 -26.699665 -2.719663 3.129268 22.348957 -0.015847 0.810043 11.752691 0.000000 0.000000 0.000000 5.106697 -14.866929 -38.338558 23.414231 -34.538620 7.371803 23.036493 -22.646663 11.229120 0.000000 0.000000 0.000000 -7.125000 0.000000 0.000000 -2.864203 17.814513 -1.852824 0.000000 0.000000 0.000000 -10.523205 -13.190941 29.504480 -30.251480 -41.107997 -11.574590 -15.345761 -11.962839 25.715349 0.000000 0.000000 0.000000 7.125000 0.000000 0.000000 15.593126 55.831135 -4.217333
0.199790 16.039895 1.307150 -434.587124 92.502642 -425.953023 0.000000 0.000000 0.000000 -13.282765 -1.283333 -31.256574 6.830565 15.187540 48.230621 1.576710 -8.990170 -22.499607 0.036360 1.230683 3.383791 0.000000 0.000000 0.000000 9.311100 1.264259 -35.728846 -6.377390 -14.784375 46.478346 -1.166960 2.905169 -19.661199 -0.008150 0.581438 -1.597753 -1.581188 0.479136 30.340014 -0.082108 0.782397 6.902995 0.492735 0.669806 -8.892425 -2.837184 0.821526 -26.335995 -2.725054 3.112626 21.637590 -0.007222 0.813073 11.412126 0.000000 0.000000 0.000000 4.895017 -14.788240 -38.455845 23.226800 -34.335885 7.265790 23.357298 -22.930366 12.168800 0.000000 0.000000 0.000000 -7.125000 0.000000 0.000000 -2.682871 16.770648 -1.796560 0.000000 0.000000 0.000000 -10.522218 -13.034768 29.367501 -30.322016 -41.167770 -11.621010 -15.629997 -11.895332 25.858948 0.000000 0.000000 0.000000 7.125000 0.000000 0.000000 15.381337 56.028042 -4.232205
